<mxfile host="app.diagrams.net" agent="Mozilla/5.0 (X11; Linux x86_64; rv:128.0) Gecko/20100101 Firefox/128.0" version="26.0.11">
  <diagram name="第 1 页" id="bY1A6Q9FNZL1OBpkXdUL">
    <mxGraphModel dx="1234" dy="411" grid="0" gridSize="10" guides="1" tooltips="1" connect="1" arrows="1" fold="1" page="1" pageScale="1" pageWidth="827" pageHeight="1169" math="0" shadow="0">
      <root>
        <mxCell id="0" />
        <mxCell id="1" parent="0" />
        <mxCell id="4OvoKXuAO6zvgX6H4GW2-1" value="" style="rounded=0;whiteSpace=wrap;html=1;strokeColor=none;fillColor=none;" parent="1" vertex="1">
          <mxGeometry x="102" y="246" width="557" height="164" as="geometry" />
        </mxCell>
        <mxCell id="4OvoKXuAO6zvgX6H4GW2-2" value="&lt;font&gt;&lt;b&gt;MPI Rank 0&lt;/b&gt;&lt;/font&gt;" style="text;html=1;align=center;verticalAlign=middle;whiteSpace=wrap;rounded=0;fontFamily=Times New Roman;" parent="1" vertex="1">
          <mxGeometry x="240" y="246" width="88" height="30" as="geometry" />
        </mxCell>
        <mxCell id="4OvoKXuAO6zvgX6H4GW2-3" value="&lt;font&gt;&lt;b&gt;MPI Rank 1&lt;/b&gt;&lt;/font&gt;" style="text;html=1;align=center;verticalAlign=middle;whiteSpace=wrap;rounded=0;fontFamily=Times New Roman;" parent="1" vertex="1">
          <mxGeometry x="455.5" y="244" width="88" height="30" as="geometry" />
        </mxCell>
        <mxCell id="4OvoKXuAO6zvgX6H4GW2-4" value="" style="endArrow=none;html=1;rounded=0;strokeWidth=1;strokeColor=#000000;fontFamily=Times New Roman;fontColor=#000000;" parent="1" edge="1">
          <mxGeometry width="50" height="50" relative="1" as="geometry">
            <mxPoint x="388" y="410" as="sourcePoint" />
            <mxPoint x="388" y="246" as="targetPoint" />
          </mxGeometry>
        </mxCell>
        <mxCell id="4OvoKXuAO6zvgX6H4GW2-5" value="" style="rounded=0;whiteSpace=wrap;html=1;fillColor=#79AC27;strokeColor=#023047;fontFamily=Times New Roman;fontColor=#99CCFF;" parent="1" vertex="1">
          <mxGeometry x="171" y="286" width="60" height="28" as="geometry" />
        </mxCell>
        <mxCell id="4OvoKXuAO6zvgX6H4GW2-6" value="&lt;b&gt;&lt;font&gt;GPU&lt;/font&gt;&lt;/b&gt;" style="text;html=1;align=center;verticalAlign=middle;whiteSpace=wrap;rounded=0;fontFamily=Times New Roman;" parent="1" vertex="1">
          <mxGeometry x="121" y="285" width="60" height="30" as="geometry" />
        </mxCell>
        <mxCell id="4OvoKXuAO6zvgX6H4GW2-8" value="" style="endArrow=none;dashed=1;html=1;rounded=0;strokeColor=#000000;fontFamily=Times New Roman;" parent="1" edge="1">
          <mxGeometry width="50" height="50" relative="1" as="geometry">
            <mxPoint x="121" y="326" as="sourcePoint" />
            <mxPoint x="613" y="324" as="targetPoint" />
          </mxGeometry>
        </mxCell>
        <mxCell id="4OvoKXuAO6zvgX6H4GW2-9" value="&lt;b&gt;Host&lt;/b&gt;" style="text;html=1;align=center;verticalAlign=middle;whiteSpace=wrap;rounded=0;fontFamily=Times New Roman;" parent="1" vertex="1">
          <mxGeometry x="121" y="357" width="60" height="30" as="geometry" />
        </mxCell>
        <mxCell id="4OvoKXuAO6zvgX6H4GW2-10" value="" style="rounded=0;whiteSpace=wrap;html=1;fontFamily=Times New Roman;" parent="1" vertex="1">
          <mxGeometry x="191" y="357" width="20" height="37" as="geometry" />
        </mxCell>
        <mxCell id="4OvoKXuAO6zvgX6H4GW2-12" value="" style="rounded=0;whiteSpace=wrap;html=1;fillColor=#fff2cc;strokeColor=#d6b656;fontFamily=Times New Roman;" parent="1" vertex="1">
          <mxGeometry x="252" y="357" width="49" height="37" as="geometry" />
        </mxCell>
        <mxCell id="4OvoKXuAO6zvgX6H4GW2-14" value="" style="rounded=0;whiteSpace=wrap;html=1;fontFamily=Times New Roman;fillColor=#dae8fc;strokeColor=#6c8ebf;" parent="1" vertex="1">
          <mxGeometry x="346" y="357" width="20" height="37" as="geometry" />
        </mxCell>
        <mxCell id="4OvoKXuAO6zvgX6H4GW2-16" value="" style="rounded=0;whiteSpace=wrap;html=1;fontFamily=Times New Roman;fillColor=#dae8fc;strokeColor=#6c8ebf;" parent="1" vertex="1">
          <mxGeometry x="412" y="357" width="20" height="37" as="geometry" />
        </mxCell>
        <mxCell id="4OvoKXuAO6zvgX6H4GW2-18" value="" style="rounded=0;whiteSpace=wrap;html=1;fillColor=#fff2cc;strokeColor=#d6b656;fontFamily=Times New Roman;" parent="1" vertex="1">
          <mxGeometry x="475" y="357" width="49" height="37" as="geometry" />
        </mxCell>
        <mxCell id="4OvoKXuAO6zvgX6H4GW2-20" value="" style="rounded=0;whiteSpace=wrap;html=1;fontFamily=Times New Roman;" parent="1" vertex="1">
          <mxGeometry x="567" y="357" width="20" height="37" as="geometry" />
        </mxCell>
        <mxCell id="4OvoKXuAO6zvgX6H4GW2-22" value="" style="rounded=0;whiteSpace=wrap;html=1;fillColor=#79AC27;strokeColor=#023047;fontFamily=Times New Roman;" parent="1" vertex="1">
          <mxGeometry x="547" y="285" width="60" height="28" as="geometry" />
        </mxCell>
        <mxCell id="ABBhFqmPksOka0Ks4X9A-3" value="" style="html=1;shadow=0;dashed=0;align=center;verticalAlign=middle;shape=mxgraph.arrows2.arrow;dy=0.64;dx=15.11;direction=north;notch=0;fillColor=#FFFFFF;" parent="1" vertex="1">
          <mxGeometry x="568.5" y="317" width="17" height="32" as="geometry" />
        </mxCell>
        <mxCell id="ABBhFqmPksOka0Ks4X9A-4" value="" style="html=1;shadow=0;dashed=0;align=center;verticalAlign=middle;shape=mxgraph.arrows2.arrow;dy=0.64;dx=15.11;direction=north;notch=0;rotation=-180;fillColor=#FFFFFF;" parent="1" vertex="1">
          <mxGeometry x="192.5" y="320" width="17" height="32" as="geometry" />
        </mxCell>
        <mxCell id="ABBhFqmPksOka0Ks4X9A-5" value="" style="html=1;shadow=0;dashed=0;align=center;verticalAlign=middle;shape=mxgraph.arrows2.arrow;dy=0.64;dx=15.11;direction=north;notch=0;rotation=90;fillColor=#FFFFFF;" parent="1" vertex="1">
          <mxGeometry x="223" y="360.5" width="17" height="30" as="geometry" />
        </mxCell>
        <mxCell id="ABBhFqmPksOka0Ks4X9A-6" value="" style="html=1;shadow=0;dashed=0;align=center;verticalAlign=middle;shape=mxgraph.arrows2.arrow;dy=0.64;dx=15.11;direction=north;notch=0;rotation=90;fillColor=#FFFFFF;" parent="1" vertex="1">
          <mxGeometry x="315" y="360.5" width="17" height="30" as="geometry" />
        </mxCell>
        <mxCell id="ABBhFqmPksOka0Ks4X9A-7" value="" style="html=1;shadow=0;dashed=0;align=center;verticalAlign=middle;shape=mxgraph.arrows2.arrow;dy=0.64;dx=15.11;direction=north;notch=0;rotation=90;fillColor=#FFFFFF;" parent="1" vertex="1">
          <mxGeometry x="383" y="360.5" width="17" height="30" as="geometry" />
        </mxCell>
        <mxCell id="ABBhFqmPksOka0Ks4X9A-8" value="" style="html=1;shadow=0;dashed=0;align=center;verticalAlign=middle;shape=mxgraph.arrows2.arrow;dy=0.64;dx=15.11;direction=north;notch=0;rotation=90;fillColor=#FFFFFF;" parent="1" vertex="1">
          <mxGeometry x="537" y="360.5" width="17" height="30" as="geometry" />
        </mxCell>
        <mxCell id="ABBhFqmPksOka0Ks4X9A-9" value="" style="html=1;shadow=0;dashed=0;align=center;verticalAlign=middle;shape=mxgraph.arrows2.arrow;dy=0.64;dx=15.11;direction=north;notch=0;rotation=90;fillColor=#FFFFFF;" parent="1" vertex="1">
          <mxGeometry x="445" y="360.5" width="17" height="30" as="geometry" />
        </mxCell>
        <mxCell id="8nzqHIba7fXL-3V86GoZ-1" value="CPU and Memory" style="text;html=1;strokeColor=none;fillColor=none;align=center;verticalAlign=middle;whiteSpace=wrap;rounded=0;" parent="1" vertex="1">
          <mxGeometry x="210" y="399" width="70" height="30" as="geometry" />
        </mxCell>
        <mxCell id="8nzqHIba7fXL-3V86GoZ-2" value="NIC" style="text;html=1;strokeColor=none;fillColor=none;align=center;verticalAlign=middle;whiteSpace=wrap;rounded=0;" parent="1" vertex="1">
          <mxGeometry x="334" y="399" width="44" height="30" as="geometry" />
        </mxCell>
      </root>
    </mxGraphModel>
  </diagram>
</mxfile>
